<svg width="48" height="48" viewBox="0 0 48 48" fill="none" xmlns="http://www.w3.org/2000/svg">
<rect width="48" height="48" rx="24" fill="#5A68F3"/>
<path d="M33.7187 14.8425C31.9062 13.9817 29.9682 13.3562 27.942 13C27.6932 13.4566 27.4025 14.0708 27.2021 14.5594C25.0482 14.2306 22.9142 14.2306 20.8 14.5594C20.5996 14.0708 20.3023 13.4566 20.0513 13C18.0229 13.3562 16.0827 13.984 14.2702 14.8471C10.6144 20.4544 9.62339 25.9224 10.1189 31.3128C12.5436 33.1507 14.8935 34.2672 17.2037 34.9977C17.7741 34.2009 18.2828 33.3539 18.721 32.4612C17.8864 32.1393 17.0869 31.742 16.3316 31.2808C16.532 31.1302 16.728 30.9726 16.9174 30.8105C21.5246 32.9977 26.5304 32.9977 31.0825 30.8105C31.2741 30.9726 31.4701 31.1302 31.6683 31.2808C30.9107 31.7443 30.1091 32.1416 29.2745 32.4635C29.7127 33.3539 30.2192 34.2032 30.7918 35C33.1042 34.2694 35.4563 33.153 37.881 31.3128C38.4624 25.064 36.8878 19.6461 33.7187 14.8425ZM19.3487 27.9977C17.9657 27.9977 16.8315 26.6872 16.8315 25.0913C16.8315 23.4955 17.9415 22.1827 19.3487 22.1827C20.756 22.1827 21.8902 23.4932 21.8659 25.0913C21.8681 26.6872 20.756 27.9977 19.3487 27.9977ZM28.6512 27.9977C27.2682 27.9977 26.134 26.6872 26.134 25.0913C26.134 23.4955 27.2439 22.1827 28.6512 22.1827C30.0584 22.1827 31.1926 23.4932 31.1684 25.0913C31.1684 26.6872 30.0584 27.9977 28.6512 27.9977Z" fill="white"/>
</svg>
