<svg width="50" height="50" viewBox="0 0 50 50" fill="none" xmlns="http://www.w3.org/2000/svg">
<g clip-path="url(#clip0_28400_70536)">
<circle cx="25" cy="25" r="25" fill="url(#paint0_linear_28400_70536)"/>
<path fill-rule="evenodd" clip-rule="evenodd" d="M31.7364 8.3335H18.2634C12.7879 8.3335 8.33325 12.7882 8.33325 18.2637V31.7367C8.33325 37.2122 12.7879 41.6668 18.2634 41.6668H31.7364C37.2119 41.6668 41.6666 37.2122 41.6666 31.7367V18.2637C41.6665 12.7882 37.2119 8.3335 31.7364 8.3335ZM38.3133 31.7367C38.3133 35.3689 35.3687 38.3135 31.7364 38.3135H18.2634C14.6312 38.3135 11.6866 35.3689 11.6866 31.7367V18.2637C11.6866 14.6314 14.6312 11.6868 18.2634 11.6868H31.7364C35.3687 11.6868 38.3133 14.6314 38.3133 18.2637V31.7367ZM24.9999 16.3789C20.2462 16.3789 16.3787 20.2464 16.3787 25.0001C16.3787 29.7537 20.2462 33.6213 24.9999 33.6213C29.7536 33.6213 33.6211 29.7538 33.6211 25.0001C33.6211 20.2463 29.7536 16.3789 24.9999 16.3789ZM24.9999 30.268C22.0905 30.268 19.732 27.9095 19.732 25.0001C19.732 22.0908 22.0906 19.7323 24.9999 19.7323C27.9093 19.7323 30.2677 22.0908 30.2677 25.0001C30.2677 27.9095 27.9092 30.268 24.9999 30.268ZM35.7036 16.4437C35.7036 17.5847 34.7787 18.5096 33.6378 18.5096C32.4969 18.5096 31.572 17.5847 31.572 16.4437C31.572 15.3028 32.4969 14.3779 33.6378 14.3779C34.7787 14.3779 35.7036 15.3028 35.7036 16.4437Z" fill="white"/>
</g>
<defs>
<linearGradient id="paint0_linear_28400_70536" x1="10.1562" y1="50" x2="32.8125" y2="6.48289e-07" gradientUnits="userSpaceOnUse">
<stop stop-color="#FBD06F"/>
<stop offset="0.3" stop-color="#F16C2E"/>
<stop offset="0.6" stop-color="#C82E96"/>
<stop offset="1" stop-color="#4E6AD6"/>
</linearGradient>
<clipPath id="clip0_28400_70536">
<rect width="50" height="50" fill="white"/>
</clipPath>
</defs>
</svg>
